<svg width="28" height="26" viewBox="0 0 28 26" fill="none" xmlns="http://www.w3.org/2000/svg">
<path fill-rule="evenodd" clip-rule="evenodd" d="M14.1219 25.8043C21.5036 25.8043 27.4875 20.0963 27.4875 13.0551C27.4875 6.01392 21.5036 0.305908 14.1219 0.305908C6.74033 0.305908 0.756348 6.01392 0.756348 13.0551C0.756348 20.0963 6.74033 25.8043 14.1219 25.8043ZM10.5491 23.9463C11.6774 24.2827 12.8775 24.464 14.1219 24.464C15.358 24.464 16.5503 24.2852 17.6719 23.9531V21.1642C17.6722 20.7143 17.5786 20.2688 17.3964 19.8538C17.2143 19.4388 16.9473 19.0626 16.611 18.7471C20.5371 18.0884 22.18 15.8068 22.18 13.0923C22.18 11.7749 21.7206 10.5558 20.8184 9.57832C21.3281 8.06654 20.8001 6.77446 20.6798 6.48007C20.6739 6.46568 20.669 6.45367 20.6652 6.44414C19.1616 6.31399 17.6023 7.38174 17.2876 7.61016C16.3604 7.37111 15.3079 7.24096 14.1272 7.24096C12.9522 7.24096 11.9024 7.3658 10.9835 7.60219C10.8527 7.50392 9.17082 6.26087 7.55302 6.39899C7.54997 6.40646 7.5462 6.4155 7.54179 6.42606C7.42568 6.7044 6.86931 8.0381 7.41658 9.58629C6.52555 10.5611 6.07167 11.7696 6.07167 13.0844C6.07167 15.7936 7.70339 18.0725 11.6184 18.7418C11.1506 19.1748 10.8109 19.7325 10.6522 20.3567C9.92542 20.5294 8.4914 20.7047 7.75629 19.6661C6.73995 18.2345 5.86283 17.7059 5.00242 18.1283C4.81142 18.3385 5.05844 18.4969 5.40968 18.7223C5.7241 18.924 6.12204 19.1792 6.36404 19.5732C6.40113 19.6315 6.43607 19.7324 6.48055 19.8608C6.73994 20.6097 7.32365 22.2949 10.5491 21.9344V23.9463Z" fill="#928A97"/>
</svg>
