<svg width="28" height="26" viewBox="0 0 28 26" fill="none" xmlns="http://www.w3.org/2000/svg">
<path d="M14 0C6.26792 0 0 5.82021 0 13C0 20.1798 6.26792 26 14 26C21.7321 26 28 20.1798 28 13C28 5.82021 21.7321 0 14 0ZM10.5729 18.3882H7.73792V9.91656H10.5729V18.3882ZM9.13792 8.87656C8.2425 8.87656 7.66354 8.2875 7.66354 7.55896C7.66354 6.81552 8.26 6.24406 9.17438 6.24406C10.0887 6.24406 10.6488 6.81552 10.6663 7.55896C10.6663 8.2875 10.0887 8.87656 9.13792 8.87656ZM20.9271 18.3882H18.0921V13.6933C18.0921 12.6005 17.6808 11.8584 16.6556 11.8584C15.8725 11.8584 15.4073 12.3608 15.2017 12.8443C15.1258 13.0163 15.1069 13.26 15.1069 13.5024V18.3869H12.2704V12.6181C12.2704 11.5605 12.234 10.6762 12.196 9.91521H14.6592L14.789 11.092H14.8458C15.2192 10.5395 16.1335 9.72427 17.6633 9.72427C19.5285 9.72427 20.9271 10.8848 20.9271 13.3792V18.3882Z" fill="#928A97"/>
</svg>
