<svg width="27" height="26" viewBox="0 0 27 26" fill="none" xmlns="http://www.w3.org/2000/svg">
<path fill-rule="evenodd" clip-rule="evenodd" d="M13.3656 25.8041C20.7472 25.8041 26.7312 20.0961 26.7312 13.0549C26.7312 6.01368 20.7472 0.305664 13.3656 0.305664C5.98398 0.305664 0 6.01368 0 13.0549C0 20.0961 5.98398 25.8041 13.3656 25.8041ZM19.3687 10.5076C19.3687 10.3801 19.3687 10.2499 19.3603 10.1251C19.9646 9.70809 20.4908 9.18484 20.9113 8.59519C20.3544 8.82627 19.7529 8.99094 19.1292 9.05469C19.7724 8.6908 20.2569 8.11443 20.4881 7.43182C19.8922 7.76649 19.2239 8.01616 18.525 8.141C17.9597 7.56728 17.1578 7.21137 16.2668 7.21137C14.3789 7.21137 12.8084 8.83423 13.2456 10.8396C12.0154 10.781 10.8119 10.4762 9.71334 9.94492C8.61476 9.41364 7.64568 8.66779 6.86907 7.75586C6.59898 8.19146 6.44862 8.69346 6.44862 9.24327C6.44896 9.72894 6.57493 10.207 6.81536 10.6351C7.0558 11.0632 7.40326 11.4282 7.82694 11.6975C7.32295 11.6789 6.84123 11.5434 6.43191 11.323V11.3602C6.43048 12.0412 6.67627 12.7017 7.12752 13.2295C7.57877 13.7572 8.20766 14.1197 8.90733 14.2553C8.41726 14.3748 7.98844 14.3748 7.51229 14.3084C7.90212 15.4771 9.04377 16.327 10.4026 16.3536C9.34171 17.1451 8.01072 17.6126 6.56278 17.6126C6.30661 17.6126 6.06714 17.602 5.81653 17.5754C7.18651 18.4121 8.81265 18.8981 10.5669 18.8981C16.2556 18.8981 19.3687 14.4067 19.3687 10.5076Z" fill="#928A97"/>
</svg>
